<?xml version="1.0" encoding="utf-8"?>
<!-- Generator: Adobe Illustrator 24.0.1, SVG Export Plug-In . SVG Version: 6.00 Build 0)  -->
<svg version="1.1" id="Layer_1" xmlns="http://www.w3.org/2000/svg" xmlns:xlink="http://www.w3.org/1999/xlink" x="0px" y="0px"
	 viewBox="0 0 1098 288" style="enable-background:new 0 0 1098 288;" xml:space="preserve">
<style type="text/css">
	.st0{fill:#866EEA;}
	.st1{fill:#FFCC5A;}
	.st2{fill:#FF4D84;}
</style>
<g>
	<g>
		<path class="st0" d="M131.1,193.2L116.3,204c-7.8,5.7-9.5,16.6-3.9,24.4c3.4,4.7,8.8,7.2,14.2,7.2c3.6,0,7.2-1.1,10.3-3.3
			l10.9-7.9L131.1,193.2z"/>
		<path class="st0" d="M239.7,135.9c-5.7-7.8-16.6-9.5-24.4-3.9l-58.4,42.5l24.5,25.4l54.5-39.6
			C243.6,154.6,245.3,143.7,239.7,135.9z"/>
	</g>
	<g>
		<path class="st1" d="M143.4,160.6l24.2-16.7c7.9-5.5,9.9-16.4,4.4-24.4c-5.5-7.9-16.4-9.9-24.4-4.4l-28.9,20L143.4,160.6z"/>
		<path class="st1" d="M105.1,144.5l-71.2,49.3c-7.9,5.5-9.9,16.4-4.4,24.4c3.4,4.9,8.9,7.5,14.4,7.5c3.4,0,6.9-1,9.9-3.1l67.9-47
			L105.1,144.5z"/>
	</g>
	<g>
		<path class="st2" d="M105.3,121.2l61.2-44.5c7.8-5.7,9.5-16.6,3.9-24.4c-5.7-7.8-16.6-9.5-24.4-3.9L80.8,95.7L105.3,121.2z"/>
		<path class="st2" d="M79.5,96.6L47,120.3c-7.8,5.7-9.5,16.6-3.9,24.4c3.4,4.7,8.8,7.2,14.2,7.2c3.6,0,7.2-1.1,10.3-3.3l28.6-20.8
			L79.5,96.6z"/>
	</g>
</g>
<g>
	<path d="M293.5,211.8c-9.5-4.4-16.8-10.3-21.8-17.8l19.8-15.8c3.4,5.6,8.1,10.1,14.3,13.5c6.2,3.4,12.5,5.2,19.1,5.2
		c6.6,0,11.8-1.2,15.7-3.7c3.9-2.5,5.8-6,5.8-10.6c0-2.8-0.8-5-2.4-6.7c-1.6-1.7-4.5-3.1-8.6-4.3c-0.9-0.3-2.8-0.7-5.6-1.3
		c-2.9-0.6-6.6-1.4-11.3-2.4c-7.5-1.6-13.1-3-16.9-4.3c-3.8-1.2-7.1-2.8-9.9-4.5c-4.1-2.8-7.2-6.2-9.2-10.1c-2.1-4-3.1-8.7-3.1-14.1
		c0-10.7,4.2-19.5,12.7-26.3c8.4-6.8,19.2-10.2,32.4-10.2c9.8,0,19,2,27.5,5.9s14.9,9.2,19.1,15.8l-17.8,16.1
		c-3.4-5.1-7.7-9.1-13-12s-11.1-4.3-17.4-4.3c-5.4,0-9.8,1.1-13,3.4c-3.2,2.3-4.8,5.3-4.8,9.1c0,2.3,0.7,4.3,2.1,5.7
		c1.4,1.5,3.6,2.8,6.7,4c1.2,0.3,2.6,0.7,4.3,1.1c1.7,0.4,5,1.2,9.8,2.2c9.5,2.1,16.1,3.7,19.8,5c3.7,1.2,6.9,2.6,9.7,4.1
		c5,2.8,8.7,6.3,11.1,10.6c2.4,4.3,3.6,9.3,3.6,15.2c0,11.1-4.5,20.3-13.5,27.5s-20.4,10.8-34,10.8
		C313.5,218.4,303.1,216.2,293.5,211.8z"/>
	<path d="M392.1,85.1V58h27.3v27.1H392.1z M418.9,100.5V216h-26.4V100.5H418.9z"/>
	<path d="M468.8,213.7c-6.5-3.2-12.1-7.7-16.6-13.8c-4.1-5.4-7.3-11.7-9.5-18.8c-2.2-7.1-3.3-14.7-3.3-22.8s1.1-15.7,3.3-22.8
		c2.2-7.1,5.4-13.4,9.5-18.8c4.5-6,10.1-10.6,16.6-13.8s13.7-4.7,21.5-4.7c6.9,0,13.2,1.2,18.8,3.7c5.6,2.5,10.5,6.1,14.4,10.8V58
		h26.4v158h-26.4v-12.1c-4,4.7-8.8,8.3-14.4,10.8c-5.6,2.5-11.9,3.7-18.8,3.7C482.4,218.4,475.3,216.8,468.8,213.7z M524.1,155.1
		c0-10.3-2.6-18.4-7.8-24.5c-5.2-6.1-12.1-9.1-20.8-9.1c-9.2,0-16.5,3.3-21.7,9.9c-5.2,6.6-7.8,15.6-7.8,27.1s2.6,20.5,7.8,27.1
		c5.2,6.6,12.4,9.9,21.7,9.9c8.5,0,15.4-3,20.7-9.1s7.9-14.2,7.9-24.3V155.1z"/>
	<path d="M603.5,213.9c-7-3-13.1-7.3-18.3-12.9c-4.8-5.4-8.5-11.8-11.1-19s-3.9-15.1-3.9-23.7c0-8.1,1.3-15.7,3.9-23
		c2.6-7.3,6.2-13.6,10.9-19c5.1-5.9,11.1-10.3,18-13.4c6.9-3.1,14.3-4.6,22.2-4.6c15.7,0,28.2,5.2,37.4,15.7
		c9.2,10.5,13.9,24.2,13.9,41.3v8.8h-81c1,9.8,4.3,17.6,9.8,23.3c5.5,5.7,12.5,8.6,21,8.6c6.6,0,12.3-1.6,17-5
		c4.8-3.3,8-7.8,9.8-13.5l22.7,8.6c-4.1,10.1-10.5,18-19.2,23.8s-18.8,8.6-30.2,8.6C618.2,218.4,610.6,216.9,603.5,213.9z
		 M607.1,126.7c-4.9,4.1-8.3,10-10.2,17.6h53c-0.1-7.2-2.4-12.9-6.8-17.3c-4.4-4.3-10.4-6.5-18-6.5
		C618,120.5,612.1,122.6,607.1,126.7z"/>
	<path d="M706.6,210.2c-5.2-4.8-7.8-12.5-7.8-23.2v-64h-16.1v-22.4h16.1V66.6h26v33.9h24.2v22.4h-24.2v59.8c0,4.1,1,7,3.1,8.8
		c2.1,1.8,6.2,2.6,12.3,2.6c1.8,0,3.4,0,4.8-0.1s3.4-0.3,5.9-0.5v22.2c-2.6,0.4-5.6,0.8-8.8,1.1s-6.4,0.4-9.5,0.4
		C720.5,217.3,711.8,214.9,706.6,210.2z"/>
	<path d="M832.3,99.9c1.2,0.1,2.5,0.2,4,0.3v26.4c-1.8-0.3-3.4-0.5-4.8-0.6s-3.1-0.1-4.8-0.1c-8.8,0-15.9,2.7-21.3,8
		c-5.4,5.4-8.1,12.4-8.1,21.2V216h-26.4V100.5h26.4v17.2c2.6-5.4,6.8-9.8,12.4-13c5.6-3.2,12.1-4.8,19.2-4.8
		C830,99.8,831.1,99.9,832.3,99.9z"/>
	<path d="M875,213.9c-7-3-13.1-7.3-18.3-12.9c-4.8-5.4-8.5-11.8-11.1-19s-3.9-15.1-3.9-23.7c0-8.1,1.3-15.7,3.9-23
		c2.6-7.3,6.2-13.6,10.9-19c5.1-5.9,11.1-10.3,18-13.4c6.9-3.1,14.3-4.6,22.2-4.6c15.7,0,28.2,5.2,37.4,15.7
		c9.2,10.5,13.9,24.2,13.9,41.3v8.8h-81c1,9.8,4.3,17.6,9.8,23.3c5.5,5.7,12.5,8.6,21,8.6c6.6,0,12.3-1.6,17-5
		c4.8-3.3,8-7.8,9.8-13.5l22.7,8.6c-4.1,10.1-10.5,18-19.2,23.8s-18.8,8.6-30.2,8.6C889.7,218.4,882,216.9,875,213.9z M878.6,126.7
		c-4.9,4.1-8.3,10-10.2,17.6h53c-0.1-7.2-2.4-12.9-6.8-17.3c-4.4-4.3-10.4-6.5-18-6.5C889.5,120.5,883.5,122.6,878.6,126.7z"/>
	<path d="M994.2,58v91.1l44.4-48.6h32.3l-43.6,44.9l47.1,70.6h-30.6l-34.5-52.1l-15.2,15.4V216h-26.4V58H994.2z"/>
</g>
</svg>
