<?xml version="1.0" encoding="utf-8"?>
<!-- Generator: Adobe Illustrator 24.0.1, SVG Export Plug-In . SVG Version: 6.00 Build 0)  -->
<svg version="1.1" id="Layer_1" xmlns="http://www.w3.org/2000/svg" xmlns:xlink="http://www.w3.org/1999/xlink" x="0px" y="0px"
	 viewBox="0 0 300 300" style="enable-background:new 0 0 300 300;" xml:space="preserve">
<style type="text/css">
	.st0{fill:#866EEA;}
	.st1{fill:#FFCC5A;}
	.st2{fill:#FF4D84;}
</style>
<g>
	<path class="st0" d="M145.7,223.3l-20.5,14.9c-10.8,7.9-13.2,23-5.3,33.9c4.8,6.5,12.1,10,19.6,10c4.9,0,9.9-1.5,14.2-4.6l15.1-11
		L145.7,223.3z"/>
	<path class="st0" d="M296,143.9c-7.9-10.8-23-13.2-33.9-5.3l-80.9,58.8l34,35.2l75.4-54.9C301.5,169.9,303.9,154.7,296,143.9z"/>
</g>
<g>
	<path class="st1" d="M162.7,178.2l33.5-23.2c11-7.6,13.8-22.7,6.1-33.7c-7.6-11-22.7-13.8-33.7-6.1l-40,27.7L162.7,178.2z"/>
	<path class="st1" d="M109.8,155.9l-98.6,68.3c-11,7.6-13.8,22.7-6.1,33.7c4.7,6.8,12.3,10.4,20,10.4c4.8,0,9.6-1.4,13.8-4.3
		l94-65.1L109.8,155.9z"/>
</g>
<g>
	<path class="st2" d="M110,123.5l84.7-61.6c10.8-7.9,13.2-23,5.3-33.9c-7.9-10.8-23-13.2-33.9-5.3L76,88.3L110,123.5z"/>
	<path class="st2" d="M74.3,89.5l-45.1,32.8c-10.8,7.9-13.2,23-5.3,33.9c4.8,6.5,12.1,10,19.6,10c4.9,0,9.9-1.5,14.2-4.6l39.6-28.8
		L74.3,89.5z"/>
</g>
</svg>
